<svg xmlns="http://www.w3.org/2000/svg" version="1.1" xmlns:xlink="http://www.w3.org/1999/xlink" xmlns:svgjs="http://svgjs.dev/svgjs" width="1920" height="1080" preserveAspectRatio="none" viewBox="0 0 1920 1080"><g mask="url(&quot;#SvgjsMask1381&quot;)" fill="none"><rect width="1920" height="1080" x="0" y="0" fill="url(&quot;#SvgjsLinearGradient1382&quot;)"></rect><path d="M2016 1080L0 1080 L0 970.88Q26.89 837.77, 160 864.66Q253.49 798.15, 320 891.64Q375.13 850.77, 416 905.9Q533.83 863.73, 576 981.56Q650.72 896.28, 736 971Q801.92 876.92, 896 942.85Q907.63 858.48, 992 870.11Q1045.81 827.92, 1088 881.74Q1180.38 878.13, 1184 970.51Q1230.44 856.95, 1344 903.4Q1430.3 829.7, 1504 916Q1583.1 899.1, 1600 978.2Q1689.55 907.75, 1760 997.29Q1769.66 910.95, 1856 920.62Q1920.26 824.88, 2016 889.13z" fill="rgba(53, 107, 175, 1)"></path><path d="M2016 1080L0 1080 L0 985.58Q102.73 992.32, 96 1095.05Q154.24 1057.29, 192 1115.53Q250.73 1014.26, 352 1072.98Q377.18 1002.16, 448 1027.34Q501.79 985.13, 544 1038.92Q562.39 961.32, 640 979.71Q693.48 937.19, 736 990.67Q812.74 971.4, 832 1048.14Q901.95 958.09, 992 1028.04Q1117.91 993.95, 1152 1119.86Q1188 1059.86, 1248 1095.86Q1243.53 995.39, 1344 990.92Q1482.9 969.82, 1504 1108.72Q1538.24 1046.96, 1600 1081.2Q1663.48 984.68, 1760 1048.17Q1821.77 949.94, 1920 1011.71Q1957.27 952.99, 2016 990.26z" fill="rgba(255, 255, 255, 1)"></path></g><defs><mask id="SvgjsMask1381"><rect width="1920" height="1080" fill="#ffffff"></rect></mask><linearGradient x1="50%" y1="0%" x2="50%" y2="100%" gradientUnits="userSpaceOnUse" id="SvgjsLinearGradient1382"><stop stop-color="rgba(37, 71, 126, 1)" offset="0.41"></stop><stop stop-color="rgba(52, 106, 174, 1)" offset="1"></stop></linearGradient></defs></svg>