<svg xmlns="http://www.w3.org/2000/svg" version="1.1" xmlns:xlink="http://www.w3.org/1999/xlink" xmlns:svgjs="http://svgjs.dev/svgjs" width="1920" height="1228" preserveAspectRatio="none" viewBox="0 0 1920 1228"><g mask="url(&quot;#SvgjsMask4261&quot;)" fill="none"><rect width="1920" height="1228" x="0" y="0" fill="url(&quot;#SvgjsLinearGradient4262&quot;)"></rect><path d="M2016 1228L0 1228 L0 985.78Q52.15 941.93, 96 994.09Q218 956.09, 256 1078.09Q267.05 993.13, 352 1004.18Q446.89 939.07, 512 1033.96Q620.15 982.11, 672 1090.26Q676.27 998.53, 768 1002.79Q806.07 944.86, 864 982.92Q933.61 956.53, 960 1026.13Q1088.26 994.39, 1120 1122.65Q1172.64 1015.29, 1280 1067.93Q1397.85 1025.78, 1440 1143.63Q1487.46 1031.09, 1600 1078.55Q1614.53 997.08, 1696 1011.6Q1769.92 925.52, 1856 999.44Q1977.66 961.11, 2016 1082.77z" fill="rgba(53, 107, 175, 1)"></path><path d="M1984 1228L0 1228 L0 1131.34Q119.71 1091.05, 160 1210.76Q253.1 1143.86, 320 1236.96Q354.18 1111.14, 480 1145.32Q545.13 1114.45, 576 1179.59Q695.84 1139.43, 736 1259.27Q755.67 1118.94, 896 1138.61Q954.77 1101.38, 992 1160.15Q1056.53 1128.68, 1088 1193.2Q1160.38 1169.58, 1184 1241.96Q1218.09 1116.05, 1344 1150.13Q1373.23 1083.37, 1440 1112.6Q1525.86 1038.46, 1600 1124.32Q1665.43 1093.75, 1696 1159.18Q1765.27 1132.45, 1792 1201.73Q1869.1 1182.83, 1888 1259.93Q1928.75 1204.68, 1984 1245.44z" fill="rgba(255, 255, 255, 1)"></path></g><defs><mask id="SvgjsMask4261"><rect width="1920" height="1228" fill="#ffffff"></rect></mask><linearGradient x1="50%" y1="0%" x2="50%" y2="100%" gradientUnits="userSpaceOnUse" id="SvgjsLinearGradient4262"><stop stop-color="rgba(37, 71, 126, 1)" offset="0.5"></stop><stop stop-color="rgba(52, 106, 174, 1)" offset="1"></stop></linearGradient></defs></svg>