<svg xmlns="http://www.w3.org/2000/svg" version="1.1" xmlns:xlink="http://www.w3.org/1999/xlink" xmlns:svgjs="http://svgjs.dev/svgjs" width="1920" height="1228" preserveAspectRatio="none" viewBox="0 0 1920 1228"><g mask="url(&quot;#SvgjsMask4503&quot;)" fill="none"><rect width="1920" height="1228" x="0" y="0" fill="url(&quot;#SvgjsLinearGradient4504&quot;)"></rect><path d="M1984 1228L0 1228 L0 983.18Q105.64 992.82, 96 1098.46Q153.24 1059.7, 192 1116.95Q255.6 1084.55, 288 1148.15Q311.37 1075.52, 384 1098.88Q424.79 1043.67, 480 1084.46Q519.88 1028.35, 576 1068.23Q690.53 1022.76, 736 1137.29Q744.94 986.23, 896 995.17Q1008.16 947.33, 1056 1059.48Q1093.92 1001.4, 1152 1039.33Q1281.85 1009.17, 1312 1139.02Q1362.6 1029.62, 1472 1080.21Q1562.78 1010.99, 1632 1101.77Q1685.59 1059.36, 1728 1112.94Q1748.94 1037.88, 1824 1058.82Q1889.27 964.09, 1984 1029.37z" fill="rgba(53, 107, 175, 1)"></path><path d="M1952 1228L0 1228 L0 1167.57Q56.23 1127.8, 96 1184.04Q213.88 1141.92, 256 1259.8Q277.46 1185.26, 352 1206.73Q419.58 1114.31, 512 1181.89Q559.52 1069.41, 672 1116.93Q769.45 1054.38, 832 1151.84Q921.32 1081.15, 992 1170.47Q1009.69 1092.16, 1088 1109.85Q1174.28 1036.13, 1248 1122.4Q1323.42 1101.83, 1344 1177.25Q1385.8 1123.05, 1440 1164.85Q1574.95 1139.8, 1600 1274.76Q1640.89 1219.65, 1696 1260.54Q1706.63 1175.17, 1792 1185.81Q1879.75 1113.56, 1952 1201.31z" fill="rgba(255, 255, 255, 1)"></path></g><defs><mask id="SvgjsMask4503"><rect width="1920" height="1228" fill="#ffffff"></rect></mask><linearGradient x1="50%" y1="0%" x2="50%" y2="100%" gradientUnits="userSpaceOnUse" id="SvgjsLinearGradient4504"><stop stop-color="rgba(37, 71, 126, 1)" offset="0.5"></stop><stop stop-color="rgba(52, 106, 174, 1)" offset="1"></stop></linearGradient></defs></svg>