<svg xmlns="http://www.w3.org/2000/svg" version="1.1" xmlns:xlink="http://www.w3.org/1999/xlink" xmlns:svgjs="http://svgjs.dev/svgjs" width="1920" height="1415" preserveAspectRatio="none" viewBox="0 0 1920 1415"><g mask="url(&quot;#SvgjsMask5601&quot;)" fill="none"><rect width="1920" height="1415" x="0" y="0" fill="url(&quot;#SvgjsLinearGradient5602&quot;)"></rect><path d="M2048 1415L0 1415 L0 1295.16Q29.82 1228.98, 96 1258.8Q107.02 1173.82, 192 1184.84Q260.73 1093.57, 352 1162.3Q420.75 1135.05, 448 1203.8Q481.22 1141.02, 544 1174.24Q667.61 1137.85, 704 1261.45Q731.67 1129.13, 864 1156.8Q950.35 1083.14, 1024 1169.49Q1122.95 1108.44, 1184 1207.39Q1287.79 1215.18, 1280 1318.97Q1252.01 1194.98, 1376 1166.99Q1436.29 1131.28, 1472 1191.56Q1548.38 1171.94, 1568 1248.32Q1675 1195.32, 1728 1302.33Q1790.85 1205.18, 1888 1268.03Q1915.4 1135.43, 2048 1162.83z" fill="rgba(53, 107, 175, 1)"></path><path d="M2016 1415L0 1415 L0 1444.2Q70.62 1354.82, 160 1425.44Q225.69 1331.13, 320 1396.83Q431.2 1348.03, 480 1459.23Q520.51 1403.74, 576 1444.26Q591.05 1363.31, 672 1378.36Q698.18 1308.54, 768 1334.72Q878.71 1285.43, 928 1396.14Q1013.52 1321.66, 1088 1407.19Q1117.54 1340.73, 1184 1370.27Q1210.69 1300.96, 1280 1327.65Q1352.59 1240.24, 1440 1312.83Q1518.37 1295.2, 1536 1373.57Q1578.85 1320.41, 1632 1363.26Q1701.35 1336.61, 1728 1405.96Q1732.59 1314.55, 1824 1319.14Q1866.72 1265.86, 1920 1308.58Q2005.45 1298.03, 2016 1383.47z" fill="rgba(255, 255, 255, 1)"></path></g><defs><mask id="SvgjsMask5601"><rect width="1920" height="1415" fill="#ffffff"></rect></mask><linearGradient x1="50%" y1="0%" x2="50%" y2="100%" gradientUnits="userSpaceOnUse" id="SvgjsLinearGradient5602"><stop stop-color="rgba(37, 71, 126, 1)" offset="0.5"></stop><stop stop-color="rgba(52, 106, 174, 1)" offset="1"></stop></linearGradient></defs></svg>