<svg xmlns="http://www.w3.org/2000/svg" version="1.1" xmlns:xlink="http://www.w3.org/1999/xlink" xmlns:svgjs="http://svgjs.dev/svgjs" width="3254" height="1281" preserveAspectRatio="none" viewBox="0 0 3254 1281"><g mask="url(&quot;#SvgjsMask3700&quot;)" fill="none"><rect width="3254" height="1281" x="0" y="0" fill="rgba(37, 71, 126, 1)"></rect><path d="M3308.2333333333327 1281L0 1281 L0 587.76Q39.47 356.06, 271.1666666666667 395.53Q326.37 288.04, 433.8666666666667 343.24Q616.97 255.18, 705.0333333333333 438.28Q889.15 351.23, 976.2 535.34Q995.56 391.99, 1138.9 411.35Q1206.53 316.28, 1301.6000000000001 383.91Q1546.05 357.19, 1572.7666666666669 601.64Q1628.39 494.57, 1735.466666666667 550.19Q1750.76 294.32, 2006.6333333333337 309.61Q2099.66 239.94, 2169.3333333333335 332.97Q2334.48 335.42, 2332.0333333333333 500.56Q2495.19 392.55, 2603.2 555.7Q2725.38 406.72, 2874.3666666666663 528.9Q2883.47 375.3, 3037.066666666666 384.4Q3181.26 257.43, 3308.2333333333327 401.62z" fill="rgba(37, 71, 126, 1)"></path><path d="M3525.166666666666 1281L0 1281 L0 858.52Q11.34 707.16, 162.7 718.51Q313.42 598.06, 433.8666666666667 748.78Q493.44 645.65, 596.5666666666666 705.23Q696.08 533.58, 867.7333333333333 633.09Q997.35 600, 1030.4333333333334 729.62Q1132.18 668.67, 1193.1333333333334 770.42Q1338.43 644.55, 1464.3000000000002 789.84Q1572.1 734.94, 1627.0000000000002 842.74Q1728.38 781.41, 1789.7000000000003 882.79Q1799.15 729.54, 1952.4000000000003 738.98Q2033.66 549.07, 2223.566666666667 630.33Q2343.59 587.66, 2386.266666666667 707.68Q2459.21 509.46, 2657.4333333333334 582.4Q2810.33 464.13, 2928.6 617.02Q3133.94 659.67, 3091.2999999999997 865.01Q3183.68 794.69, 3253.9999999999995 887.07Q3285.23 647.14, 3525.166666666666 678.37z" fill="rgba(41, 80, 139, 1)"></path><path d="M3362.4666666666662 1281L0 1281 L0 1096.89Q29.63 963.82, 162.7 993.45Q283.19 842.78, 433.8666666666667 963.27Q560.94 819.17, 705.0333333333333 946.24Q745.09 823.6, 867.7333333333333 863.66Q1030.15 754.91, 1138.9 917.32Q1364.4 871.66, 1410.0666666666668 1097.16Q1467.99 992.38, 1572.7666666666669 1050.3Q1545.66 860.49, 1735.466666666667 833.38Q1859.2 685.94, 2006.6333333333337 809.67Q2195.86 727.73, 2277.8 916.96Q2434.01 802, 2548.9666666666667 958.21Q2613.42 751.5, 2820.133333333333 815.95Q2968.66 693.31, 3091.2999999999997 841.83Q3370.41 849.78, 3362.4666666666662 1128.89z" fill="rgba(53, 107, 175, 1)"></path><path d="M3470.9333333333325 1281L0 1281 L0 1060.97Q118.82 1017.09, 162.7 1135.91Q277.1 979.15, 433.8666666666667 1093.55Q546.37 1043.35, 596.5666666666666 1155.85Q691.69 1088.27, 759.2666666666667 1183.4Q887.87 1149.31, 921.9666666666667 1277.91Q1034.5 1119.28, 1193.1333333333334 1231.81Q1286.29 1162.26, 1355.8333333333335 1255.42Q1539.19 1167.61, 1627.0000000000002 1350.96Q1721.48 1282.73, 1789.7000000000003 1377.21Q1825.47 1141.82, 2060.866666666667 1177.59Q2157.85 1111.87, 2223.5666666666666 1208.85Q2393.61 1107.73, 2494.733333333333 1277.78Q2642.87 1154.75, 2765.8999999999996 1302.88Q2820.98 1195.26, 2928.5999999999995 1250.34Q2999.86 1050.44, 3199.766666666666 1121.7Q3371.55 1022.32, 3470.9333333333325 1194.1z" fill="rgba(255, 255, 255, 1)"></path></g><defs><mask id="SvgjsMask3700"><rect width="3254" height="1281" fill="#ffffff"></rect></mask></defs></svg>