<svg xmlns="http://www.w3.org/2000/svg" version="1.1" xmlns:xlink="http://www.w3.org/1999/xlink" xmlns:svgjs="http://svgjs.dev/svgjs" width="2654" height="1080" preserveAspectRatio="none" viewBox="0 0 2654 1080"><g mask="url(&quot;#SvgjsMask2764&quot;)" fill="none"><rect width="2654" height="1080" x="0" y="0" fill="rgba(37, 71, 126, 1)"></rect><path d="M2742.4666666666667 1080L0 1080 L0 590.56Q-62.21 395.65, 132.7 333.44Q292.18 271.76, 353.8666666666667 431.24Q527.89 384.1, 575.0333333333333 558.13Q596.61 358.54, 796.2 380.11Q834.92 286.13, 928.9000000000001 324.84Q1013.99 277.22, 1061.6000000000001 362.31Q1256.65 336.2, 1282.7666666666669 531.25Q1337.73 453.51, 1415.466666666667 508.47Q1391.66 351.96, 1548.166666666667 328.15Q1810.21 369.03, 1769.3333333333337 631.07Q1729.3 458.34, 1902.0333333333338 418.31Q1939.84 323.42, 2034.7333333333338 361.22Q2134.07 239.39, 2255.9000000000005 338.72Q2396.46 258.12, 2477.066666666667 398.68Q2599.69 388.6, 2609.766666666667 511.22Q2663.85 432.6, 2742.4666666666667 486.68z" fill="rgba(41, 80, 139, 1)"></path><path d="M2786.7 1080L0 1080 L0 833.46Q29.69 730.45, 132.7 760.13Q173.87 580.14, 353.8666666666667 621.31Q489.4 535.68, 575.0333333333333 671.21Q741.52 705, 707.7333333333333 871.48Q649.34 680.39, 840.4333333333334 622Q890.62 539.49, 973.1333333333334 589.68Q1050.48 534.32, 1105.8333333333335 611.67Q1238.65 523.32, 1327.0000000000002 656.13Q1430.79 538.76, 1548.166666666667 642.55Q1678.54 640.22, 1680.866666666667 770.59Q1752.72 709.74, 1813.566666666667 781.6Q1845.25 680.58, 1946.266666666667 712.26Q1957.7 590.99, 2078.966666666667 602.43Q2246.9 637.67, 2211.666666666667 805.6Q2363.88 736.65, 2432.8333333333335 888.86Q2514.27 749.13, 2654 830.57Q2682.12 725.99, 2786.7 754.11z" fill="rgba(53, 107, 175, 1)"></path><path d="M2786.7 1080L0 1080 L0 840.22Q185.47 804.52, 221.16666666666669 989.99Q294.01 930.14, 353.8666666666667 1002.98Q476.16 992.57, 486.56666666666666 1114.86Q606.53 1013.66, 707.7333333333333 1133.63Q722.84 1016.04, 840.4333333333334 1031.15Q916.19 885.74, 1061.6000000000001 961.49Q1157.26 924.44, 1194.3000000000002 1020.1Q1213.88 818.52, 1415.466666666667 838.1Q1532.3 733.77, 1636.6333333333337 850.6Q1892.02 884.82, 1857.8000000000004 1140.2Q1933.1 1082.8, 1990.5000000000005 1158.1Q2027.09 973.52, 2211.666666666667 1010.11Q2195.03 860.77, 2344.366666666667 844.13Q2618.13 896.72, 2565.5333333333333 1170.48Q2526.1 909.88, 2786.7 870.45z" fill="rgba(255, 255, 255, 1)"></path></g><defs><mask id="SvgjsMask2764"><rect width="2654" height="1080" fill="#ffffff"></rect></mask></defs></svg>