<svg xmlns="http://www.w3.org/2000/svg" version="1.1" xmlns:xlink="http://www.w3.org/1999/xlink" xmlns:svgjs="http://svgjs.dev/svgjs" width="1920" height="1080" preserveAspectRatio="none" viewBox="0 0 1920 1080"><g mask="url(&quot;#SvgjsMask4414&quot;)" fill="none"><rect width="1920" height="1080" x="0" y="0" fill="rgba(37, 71, 126, 1)"></rect><path d="M1984 1080L0 1080 L0 716.16Q22.67 578.83, 160 601.5Q178.1 459.61, 320 477.71Q335.75 397.45, 416 413.2Q457.3 358.5, 512 399.8Q595.17 386.98, 608 470.15Q660.47 362.62, 768 415.08Q823.64 374.73, 864 430.37Q987.91 458.28, 960 582.19Q957.35 419.54, 1120 416.89Q1228.14 365.03, 1280 473.18Q1475.87 509.04, 1440 704.91Q1424.95 593.86, 1536 578.8Q1504.28 451.08, 1632 419.36Q1729.45 356.81, 1792 454.27Q1860.48 426.75, 1888 495.24Q1961.48 472.72, 1984 546.2z" fill="rgba(41, 80, 139, 1)"></path><path d="M2016 1080L0 1080 L0 693.87Q66.7 664.57, 96 731.27Q193.06 732.33, 192 829.39Q182.12 659.51, 352 649.63Q393.54 595.17, 448 636.72Q520.39 613.11, 544 685.5Q657.42 638.92, 704 752.35Q734.12 686.47, 800 716.59Q862.91 619.5, 960 682.41Q1085.9 648.31, 1120 774.21Q1163.28 657.5, 1280 700.78Q1380.01 640.79, 1440 740.81Q1541.94 682.75, 1600 784.7Q1610.22 634.92, 1760 645.14Q1800.72 589.86, 1856 630.58Q1952.33 566.91, 2016 663.25z" fill="rgba(53, 107, 175, 1)"></path><path d="M1984 1080L0 1080 L0 1083.82Q5.58 993.39, 96 998.97Q126.67 869.64, 256 900.32Q312.83 797.15, 416 853.99Q507.19 785.18, 576 876.38Q701.03 841.41, 736 966.45Q826.81 897.26, 896 988.07Q999.28 995.35, 992 1098.63Q1090.89 1037.53, 1152 1136.42Q1195.49 1019.91, 1312 1063.41Q1379.79 971.2, 1472 1038.99Q1525.66 996.65, 1568 1050.31Q1589.88 912.19, 1728 934.08Q1826.71 872.8, 1888 971.51Q2027.91 1015.42, 1984 1155.33z" fill="rgba(255, 255, 255, 1)"></path></g><defs><mask id="SvgjsMask4414"><rect width="1920" height="1080" fill="#ffffff"></rect></mask></defs></svg>