<svg xmlns="http://www.w3.org/2000/svg" version="1.1" xmlns:xlink="http://www.w3.org/1999/xlink" xmlns:svgjs="http://svgjs.dev/svgjs" width="1920" height="1080" preserveAspectRatio="none" viewBox="0 0 1920 1080"><g mask="url(&quot;#SvgjsMask4395&quot;)" fill="none"><rect width="1920" height="1080" x="0" y="0" fill="rgba(37, 71, 126, 1)"></rect><path d="M1952 1080L0 1080 L0 526.25Q158.09 588.34, 96 746.43Q87.66 642.09, 192 633.75Q202.94 548.69, 288 559.64Q359.19 470.83, 448 542.02Q523.6 521.62, 544 597.22Q632.61 525.83, 704 614.43Q854.43 604.86, 864 755.28Q902.6 633.88, 1024 672.47Q1068.79 557.26, 1184 602.05Q1272.53 530.58, 1344 619.1Q1442.09 621.19, 1440 719.28Q1402.88 586.16, 1536 549.04Q1675.93 528.97, 1696 668.9Q1823.34 636.24, 1856 763.57Q1881.94 693.52, 1952 719.46z" fill="rgba(41, 80, 139, 1)"></path><path d="M2080 1080L0 1080 L0 946.53Q36.63 887.15, 96 923.78Q99.54 767.32, 256 770.85Q275.27 694.13, 352 713.4Q439.7 641.1, 512 728.8Q662.61 719.41, 672 870.02Q734.57 836.59, 768 899.15Q834.68 869.83, 864 936.51Q869.38 845.89, 960 851.27Q947 742.27, 1056 729.27Q1104.59 681.86, 1152 730.44Q1192.15 674.59, 1248 714.74Q1323.5 694.24, 1344 769.74Q1371.46 701.2, 1440 728.66Q1509.05 637.7, 1600 706.75Q1746.82 693.57, 1760 840.38Q1813.76 734.14, 1920 787.9Q1978.85 686.75, 2080 745.59z" fill="rgba(53, 107, 175, 1)"></path><path d="M2080 1080L0 1080 L0 982.92Q70.87 957.79, 96 1028.65Q164.72 937.37, 256 1006.09Q360.34 950.43, 416 1054.78Q499.36 1042.13, 512 1125.49Q542.81 996.3, 672 1027.1Q678.95 938.04, 768 944.99Q855.71 872.7, 928 960.42Q1073.71 946.13, 1088 1091.84Q1128.71 1036.55, 1184 1077.26Q1194.7 927.96, 1344 938.67Q1416.09 850.76, 1504 922.85Q1658.76 917.62, 1664 1072.38Q1669.08 981.46, 1760 986.54Q1800.01 866.55, 1920 906.56Q2017.2 843.76, 2080 940.97z" fill="rgba(255, 255, 255, 1)"></path></g><defs><mask id="SvgjsMask4395"><rect width="1920" height="1080" fill="#ffffff"></rect></mask></defs></svg>