<svg xmlns="http://www.w3.org/2000/svg" version="1.1" xmlns:xlink="http://www.w3.org/1999/xlink" xmlns:svgjs="http://svgjs.dev/svgjs" width="1920" height="1080" preserveAspectRatio="none" viewBox="0 0 1920 1080"><g mask="url(&quot;#SvgjsMask4402&quot;)" fill="none"><rect width="1920" height="1080" x="0" y="0" fill="rgba(37, 71, 126, 1)"></rect><path d="M2048 1080L0 1080 L0 696.01Q64.35 600.36, 160 664.71Q155.52 564.23, 256 559.75Q297.2 440.95, 416 482.15Q513.34 419.49, 576 516.82Q712.83 493.65, 736 630.48Q764.3 562.78, 832 591.08Q838.78 437.86, 992 444.64Q1064.42 421.06, 1088 493.49Q1180.07 425.56, 1248 517.63Q1357.09 530.72, 1344 639.81Q1439.81 639.62, 1440 735.42Q1459.7 659.12, 1536 678.81Q1537.3 520.11, 1696 521.4Q1722.41 451.81, 1792 478.22Q1856.43 446.65, 1888 511.08Q1936.11 399.19, 2048 447.29z" fill="rgba(41, 80, 139, 1)"></path><path d="M1952 1080L0 1080 L0 856.21Q43 739.21, 160 782.2Q201.57 727.77, 256 769.33Q266.51 683.84, 352 694.35Q391.59 637.94, 448 677.53Q513 646.53, 544 711.53Q625.25 696.77, 640 778.02Q741.41 719.43, 800 820.84Q809.24 670.08, 960 679.31Q1002.38 625.69, 1056 668.08Q1147.01 663.09, 1152 754.1Q1183.85 689.94, 1248 721.79Q1271.19 648.98, 1344 672.18Q1478.73 710.91, 1440 845.64Q1431.81 741.44, 1536 733.25Q1566.11 667.36, 1632 697.47Q1742.73 648.21, 1792 758.94Q1932.7 739.64, 1952 880.35z" fill="rgba(53, 107, 175, 1)"></path><path d="M2016 1080L0 1080 L0 891.59Q156.55 952.14, 96 1108.7Q61.09 977.79, 192 942.87Q229.75 884.62, 288 922.36Q316.73 855.09, 384 883.82Q491.23 831.05, 544 938.28Q591.11 825.39, 704 872.5Q770.08 842.58, 800 908.66Q907.28 855.94, 960 963.23Q1051.86 959.09, 1056 1050.94Q1146.88 1045.83, 1152 1136.71Q1217.14 1041.85, 1312 1106.99Q1309.41 944.4, 1472 941.82Q1532.52 842.34, 1632 902.86Q1674.9 849.76, 1728 892.67Q1789.85 858.52, 1824 920.37Q1899.43 899.8, 1920 975.23Q1979.88 939.11, 2016 998.99z" fill="rgba(255, 255, 255, 1)"></path></g><defs><mask id="SvgjsMask4402"><rect width="1920" height="1080" fill="#ffffff"></rect></mask></defs></svg>